{
  "accessors": [
    {
      "bufferView": 0,
      "byteOffset": 0,
      "componentType": 5123,
      "count": 16512,
      "max": [
        5386.0
      ],
      "min": [
        0.0
      ],
      "name": "buffer-0-group-0-mesh-0-indices",
      "type": "SCALAR"
    },
    {
      "bufferView": 1,
      "byteOffset": 0,
      "componentType": 5126,
      "count": 5387,
      "max": [
        0.7155159711837769,
        2.157041072845459,
        32.70351791381836
      ],
      "min": [
        -10.260692596435547,
        -10.1599702835083,
        19.105484008789062
      ],
      "name": "buffer-0-group-0-mesh-0-position",
      "type": "VEC3"
    },
    {
      "bufferView": 1,
      "byteOffset": 64644,
      "componentType": 5126,
      "count": 5387,
      "max": [
        0.9982588291168213,
        0.9998988509178162,
        0.998100221157074
      ],
      "min": [
        -0.9994244575500488,
        -0.9996690154075623,
        -0.9969549179077148
      ],
      "name": "buffer-0-group-0-mesh-0-normal",
      "type": "VEC3"
    },
    {
      "bufferView": 2,
      "byteOffset": 0,
      "componentType": 5126,
      "count": 5387,
      "max": [
        0.9833139777183533,
        -0.0039059999398887157
      ],
      "min": [
        0.0037950000260025263,
        -0.9993889927864075
      ],
      "name": "buffer-0-group-0-mesh-0-texcoord",
      "type": "VEC2"
    }
  ],
  "asset": {
    "generator": "Obj2GltfConverter",
    "version": "2.0"
  },
  "bufferViews": [
    {
      "buffer": 0,
      "byteLength": 33024,
      "byteOffset": 0,
      "name": "buffer-0-bufferview-ushort",
      "target": 34963
    },
    {
      "buffer": 0,
      "byteLength": 129288,
      "byteOffset": 33024,
      "byteStride": 12,
      "name": "buffer-0-bufferview-vec3",
      "target": 34962
    },
    {
      "buffer": 0,
      "byteLength": 43096,
      "byteOffset": 162312,
      "byteStride": 8,
      "name": "buffer-0-bufferview-vec2",
      "target": 34962
    }
  ],
  "buffers": [
    {
      "byteLength": 205408,
      "name": "buffer-0",
      "uri": "LightShroomZ.bin"
    }
  ],
  "images": [
    {
      "mimeType": "image/jpeg",
      "name": "Chanterelle_photogrammetry-diffuse-image",
      "uri": "LightShroomZ_Chanterelle_photogrammetry.jpg"
    }
  ],
  "materials": [
    {
      "alphaMode": "OPAQUE",
      "doubleSided": true,
      "name": "Chanterelle_photogrammetry",
      "pbrMetallicRoughness": {
        "baseColorFactor": [
          1.0,
          1.0,
          1.0,
          1.0
        ],
        "baseColorTexture": {
          "index": 0,
          "texCoord": 0
        },
        "metallicFactor": 0.0,
        "roughnessFactor": 1.0
      }
    }
  ],
  "meshes": [
    {
      "name": "buffer-0-mesh-0",
      "primitives": [
        {
          "attributes": {
            "POSITION": 1,
            "NORMAL": 2,
            "TEXCOORD_0": 3
          },
          "indices": 0,
          "material": 0,
          "mode": 4
        }
      ]
    }
  ],
  "nodes": [
    {
      "mesh": 0,
      "name": "node-0"
    }
  ],
  "samplers": [
    {
      "name": "Chanterelle_photogrammetry-diffuse-sampler",
      "wrapS": 10497,
      "wrapT": 10497
    }
  ],
  "scenes": [
    {
      "name": "scene-0",
      "nodes": [
        0
      ]
    }
  ],
  "textures": [
    {
      "name": "Chanterelle_photogrammetry-diffuse-texture",
      "sampler": 0,
      "source": 0
    }
  ]
}